<?xml version="1.0" encoding="utf-8"?>
<!-- Generator: Adobe Illustrator 22.1.0, SVG Export Plug-In . SVG Version: 6.00 Build 0)  -->
<svg version="1.1" id="Layer_1" xmlns="http://www.w3.org/2000/svg" xmlns:xlink="http://www.w3.org/1999/xlink" x="0px" y="0px"
	 viewBox="0 0 8.9 13.9" style="enable-background:new 0 0 8.9 13.9;" xml:space="preserve">
<style type="text/css">
	.st0{fill-rule:evenodd;clip-rule:evenodd;}
</style>
<path class="st0" d="M5.1,7L0.4,2.4c-0.5-0.5-0.5-1.2,0-1.6l0.4-0.4c0.5-0.5,1.2-0.5,1.7,0l5.6,5.4c0,0,0,0,0,0l0.4,0.4
	C8.8,6.4,8.9,6.7,8.9,7c0,0.3-0.1,0.6-0.4,0.8L8.1,8.2c0,0,0,0,0,0l-5.6,5.3C2,14,1.3,14,0.8,13.6l-0.4-0.4c-0.5-0.5-0.5-1.2,0-1.6
	L5.1,7z"/>
</svg>
