<?xml version="1.0" encoding="utf-8"?>
<!-- Generator: Adobe Illustrator 22.1.0, SVG Export Plug-In . SVG Version: 6.00 Build 0)  -->
<svg version="1.1" id="Layer_1" xmlns="http://www.w3.org/2000/svg" xmlns:xlink="http://www.w3.org/1999/xlink" x="0px" y="0px"
	 viewBox="0 0 8.9 13.9" style="enable-background:new 0 0 8.9 13.9;" xml:space="preserve">
<style type="text/css">
	.st0{fill-rule:evenodd;clip-rule:evenodd;}
</style>
<path class="st0" d="M3.8,7l4.7-4.6C9,1.9,9,1.2,8.5,0.8L8.1,0.3c-0.5-0.5-1.2-0.5-1.7,0L0.8,5.7c0,0,0,0,0,0L0.4,6.1
	C0.1,6.4,0,6.7,0,7c0,0.3,0.1,0.6,0.4,0.8l0.4,0.4c0,0,0,0,0,0l5.6,5.3c0.5,0.5,1.2,0.5,1.7,0l0.4-0.4C9,12.7,9,12,8.5,11.5L3.8,7z"
	/>
</svg>
