<?xml version="1.0" encoding="utf-8"?>
<!-- Generator: Adobe Illustrator 22.1.0, SVG Export Plug-In . SVG Version: 6.00 Build 0)  -->
<svg version="1.1" id="Layer_1" xmlns="http://www.w3.org/2000/svg" xmlns:xlink="http://www.w3.org/1999/xlink" x="0px" y="0px"
	 viewBox="0 0 22.1 22.1" style="enable-background:new 0 0 22.1 22.1;" xml:space="preserve">
<path d="M3.7,19.6c0,1.4,1.1,2.5,2.5,2.5s2.5-1.1,2.5-2.5c0-1.3-1.1-2.5-2.5-2.5C4.8,17.2,3.7,18.3,3.7,19.6z M15.9,19.6
	c0,1.4,1.1,2.5,2.5,2.5s2.5-1.1,2.5-2.5c0-1.3-1.1-2.5-2.5-2.5C17.1,17.2,15.9,18.3,15.9,19.6z M8,13.8l13.6-3.9
	c0.2,0,0.4-0.3,0.4-0.6V2.6H4.8V0.5C4.8,0.2,4.6,0,4.3,0H0.5C0.2,0,0,0.2,0,0.5v2h2.4l2.4,11.1L5,14.7v1.9c0,0.2,0.2,0.5,0.5,0.5
	h0.6h12.3h3.2c0.3,0,0.5-0.2,0.5-0.5v-1.9H8.3C6.9,14.7,6.9,14.2,8,13.8z"/>
</svg>
