<?xml version="1.0" encoding="utf-8"?>
<!-- Generator: Adobe Illustrator 22.1.0, SVG Export Plug-In . SVG Version: 6.00 Build 0)  -->
<svg version="1.1" id="Layer_1" xmlns="http://www.w3.org/2000/svg" xmlns:xlink="http://www.w3.org/1999/xlink" x="0px" y="0px"
	 viewBox="0 0 24.4 22" style="enable-background:new 0 0 24.4 22;" xml:space="preserve">
<g>
	<path d="M23.8,2.2c-1.1-1-2.5-0.9-3.7-0.4c0-1.1,0-1.8,0-1.8h-16c0,0,0,0.7,0,1.8C3,1.3,1.6,1.2,0.6,2.2c-0.7,0.7-0.8,2-0.2,3.6
		c0.7,2,2.3,4.1,4.1,4.2c0.1,0,0.1,0,0.2,0c0.2,0,0.5,0,0.7-0.1c0.2,0.4,0.4,0.8,0.6,1.1c1.4,1.9,4.3,1,4.5,3.3c0.2,2.3,0,2.3,0,3.4
		c0,1.1-1.6,1.6-2.9,2.4C6.3,20.9,6.5,22,6.5,22h11.3c0,0,0.1-1.1-1.2-1.9c-1.3-0.8-2.9-1.3-2.9-2.4c0-1.1-0.2-1.2,0-3.4
		c0.2-2.3,3.2-1.4,4.5-3.3c0.2-0.3,0.4-0.7,0.6-1.2c0.3,0.1,0.6,0.1,0.8,0.1c0.1,0,0.1,0,0.2,0c1.8-0.1,3.4-2.3,4.1-4.2
		C24.6,4.2,24.5,2.9,23.8,2.2z M4.3,8C2.9,7.3,1.7,4.3,2,3.6c0.5-0.5,1.6,0.1,2.3,0.5C4.4,5.4,4.6,6.8,4.9,8C4.6,8.1,4.5,8,4.3,8z
		 M20,8c-0.1,0.1-0.3,0.2-0.6,0c0.3-1.2,0.4-2.6,0.5-3.8c0.6-0.4,1.8-1,2.4-0.5C22.6,4.3,21.4,7.3,20,8z"/>
</g>
</svg>
