<?xml version="1.0" encoding="utf-8"?>
<!-- Generator: Adobe Illustrator 22.1.0, SVG Export Plug-In . SVG Version: 6.00 Build 0)  -->
<svg version="1.1" id="Layer_1" xmlns="http://www.w3.org/2000/svg" xmlns:xlink="http://www.w3.org/1999/xlink" x="0px" y="0px"
	 viewBox="0 0 18 18.1" style="enable-background:new 0 0 18 18.1;" xml:space="preserve">
<style type="text/css">
	.st0{fill-rule:evenodd;clip-rule:evenodd;}
</style>
<g>
	<path class="st0" d="M9,0C4,0,0,4.1,0,9.1c0,5,4,9.1,9,9.1s9-4.1,9-9.1C18,4.1,14,0,9,0z M12.8,9.7L12.5,10c0,0,0,0,0,0l-4,3.9
		c-0.3,0.3-0.9,0.3-1.3,0l-0.3-0.3c-0.3-0.3-0.3-0.9,0-1.2l3.4-3.3L6.8,5.8c-0.3-0.3-0.3-0.9,0-1.2l0.3-0.3c0.3-0.3,0.9-0.3,1.3,0
		l4,3.9c0,0,0,0,0,0l0.3,0.3C13,8.6,13,8.9,13,9.1C13,9.3,13,9.5,12.8,9.7z"/>
</g>
</svg>
