<?xml version="1.0" encoding="utf-8"?>
<!-- Generator: Adobe Illustrator 22.1.0, SVG Export Plug-In . SVG Version: 6.00 Build 0)  -->
<svg version="1.1" id="Layer_1" xmlns="http://www.w3.org/2000/svg" xmlns:xlink="http://www.w3.org/1999/xlink" x="0px" y="0px"
	 viewBox="0 0 16 16" style="enable-background:new 0 0 16 16;" xml:space="preserve">
<g>
	<path d="M10.2,0c0,0-3.5,0-4.7,0C3.1,0,1.1,1.7,1.1,3.7c0,2,1.3,3.6,3.6,3.6c0.2,0,0.3,0,0.5,0C5,7.5,4.9,7.8,4.9,8.2
		c0,0.6,0.3,0.9,0.7,1.2c-0.3,0-0.6,0-0.9,0C1.9,9.4,0,10.3,0,13c0,1.8,2.3,3,5.1,3c3.1,0,5.1-1.7,5.1-3.6c0-1.4-0.3-2.2-1.8-3.3
		c-0.4-0.3-1.4-1-1.4-1.5c0-0.5,0.2-0.8,1-1.4c0.8-0.6,1.4-1.5,1.4-2.5c0-1.1-0.5-2.2-1.3-2.7h1.2L10.2,0z M8.4,12.2
		c0.1,0.1,0.1,0.3,0.1,0.4c0,1.3-0.9,2.2-3.4,2.2c-1.8,0-3.1-1-3.1-2.3c0-1.2,1.5-1.9,3.2-1.9C5.8,10.7,7.8,10.7,8.4,12.2z M5.6,6.5
		C4.3,6.4,3.2,5.4,3,3.8C2.8,2.2,3.8,1.1,5.1,1.1c1.2,0,2,1.2,2.2,2.8C7.5,5.5,6.8,6.5,5.6,6.5z M14,2V0h-1v2h-2v1h2v2h1V3h2V2H14z"
		/>
</g>
</svg>
