<?xml version="1.0" encoding="utf-8"?>
<!-- Generator: Adobe Illustrator 22.1.0, SVG Export Plug-In . SVG Version: 6.00 Build 0)  -->
<svg version="1.1" id="Layer_1" xmlns="http://www.w3.org/2000/svg" xmlns:xlink="http://www.w3.org/1999/xlink" x="0px" y="0px"
	 viewBox="0 0 15.3 15.7" style="enable-background:new 0 0 15.3 15.7;" xml:space="preserve">
<g>
	<path d="M1.9,0C0.7,0,0,0.7,0,1.7c0,1,0.7,1.7,1.9,1.7c1.2,0,1.9-0.7,1.9-1.7C3.7,0.7,3,0,1.9,0z M0.4,15.7h3V4.9h-3V15.7z
		 M11.6,4.5c-1.8,0-3,0.8-3.5,1.6L7.9,4.9H5.2v10.8h3V9.2c0-0.3,0-0.6,0.1-0.8c0.2-0.6,1-1.3,1.9-1.3c1.2,0,2.1,0.9,2.1,2.3v6.3h3V9
		C15.3,5.8,13.8,4.5,11.6,4.5z"/>
</g>
</svg>
