<?xml version="1.0" encoding="utf-8"?>
<!-- Generator: Adobe Illustrator 22.1.0, SVG Export Plug-In . SVG Version: 6.00 Build 0)  -->
<svg version="1.1" id="Layer_1" xmlns="http://www.w3.org/2000/svg" xmlns:xlink="http://www.w3.org/1999/xlink" x="0px" y="0px"
	 viewBox="0 0 22.5 22.5" style="enable-background:new 0 0 22.5 22.5;" xml:space="preserve">
<path d="M11.1,0C4.9,0.1-0.1,5.2,0,11.4s5.2,11.2,11.4,11.1c6.2-0.1,11.2-5.2,11.1-11.5C22.4,4.9,17.3-0.1,11.1,0z M12.4,3.7
	c1.1,0,1.5,0.7,1.5,1.4c0,1-0.8,1.9-2.1,1.9c-1.1,0-1.6-0.6-1.6-1.5C10.2,4.8,10.9,3.7,12.4,3.7z M9.5,18.3c-0.8,0-1.4-0.4-0.8-2.5
	L9.5,12c0.2-0.6,0.2-0.8,0-0.8c-0.2,0-1.2,0.4-1.8,0.8l-0.4-0.6c1.9-1.6,4.1-2.5,5-2.5c0.8,0,0.9,0.9,0.5,2.4l-1,3.9
	c-0.2,0.7-0.1,0.9,0.1,0.9c0.2,0,1-0.3,1.8-0.9l0.4,0.6C12.3,17.6,10.2,18.3,9.5,18.3z"/>
</svg>
