<?xml version="1.0" encoding="utf-8"?>
<!-- Generator: Adobe Illustrator 22.1.0, SVG Export Plug-In . SVG Version: 6.00 Build 0)  -->
<svg version="1.1" id="Layer_1" xmlns="http://www.w3.org/2000/svg" xmlns:xlink="http://www.w3.org/1999/xlink" x="0px" y="0px"
	 viewBox="0 0 24 16" style="enable-background:new 0 0 24 16;" xml:space="preserve">
<g>
	<path d="M13,10.7c-0.1,0.1-0.5,0.3-1,0.3c0,0-0.5,0.1-0.9-0.3L0,3.7v10.8C0,15.3,0.7,16,1.5,16h21c0.8,0,1.5-0.7,1.5-1.5V3.7
		L13,10.7C12.9,10.8,13,10.7,13,10.7z M24,1.5C24,0.7,23.3,0,22.5,0h-21C0.7,0,0,0.7,0,1.5L12,9L24,1.5z"/>
</g>
</svg>
