<?xml version="1.0" encoding="utf-8"?>
<!-- Generator: Adobe Illustrator 22.1.0, SVG Export Plug-In . SVG Version: 6.00 Build 0)  -->
<svg version="1.1" id="Layer_1" xmlns="http://www.w3.org/2000/svg" xmlns:xlink="http://www.w3.org/1999/xlink" x="0px" y="0px"
	 viewBox="0 0 18 24.1" style="enable-background:new 0 0 18 24.1;" xml:space="preserve">
<g>
	<path d="M9.1,0C4.1,0,0,4,0,9c0,5.2,4.6,10.7,7.9,14.5c0,0,0.5,0.6,1.2,0.6h0.1c0.6,0,1.2-0.6,1.2-0.6C13.6,19.7,18,14.2,18,9
		C18,4,14,0,9.1,0z M9,13c-2.2,0-4-1.8-4-4c0-2.2,1.8-4,4-4s4,1.8,4,4C13,11.2,11.2,13,9,13z"/>
</g>
</svg>
