<?xml version="1.0" encoding="utf-8"?>
<!-- Generator: Adobe Illustrator 22.1.0, SVG Export Plug-In . SVG Version: 6.00 Build 0)  -->
<svg version="1.1" id="Layer_1" xmlns="http://www.w3.org/2000/svg" xmlns:xlink="http://www.w3.org/1999/xlink" x="0px" y="0px"
	 viewBox="0 0 22 17" style="enable-background:new 0 0 22 17;" xml:space="preserve">
<style type="text/css">
	.st0{fill-rule:evenodd;clip-rule:evenodd;}
</style>
<g>
	<path class="st0" d="M20.7,14.1H1.3c-0.7,0-1.3,0.6-1.3,1.3v0.3C0,16.4,0.6,17,1.3,17h19.3c0.7,0,1.3-0.6,1.3-1.3v-0.3
		C22,14.6,21.4,14.1,20.7,14.1z M20.7,0H1.3C0.6,0,0,0.6,0,1.3v0.3C0,2.4,0.6,3,1.3,3h19.3C21.4,3,22,2.4,22,1.6V1.3
		C22,0.6,21.4,0,20.7,0z M20.7,7H1.3C0.6,7,0,7.6,0,8.3v0.3C0,9.4,0.6,10,1.3,10h19.3c0.7,0,1.3-0.6,1.3-1.3V8.3
		C22,7.6,21.4,7,20.7,7z"/>
</g>
</svg>
