<?xml version="1.0" encoding="utf-8"?>
<!-- Generator: Adobe Illustrator 22.1.0, SVG Export Plug-In . SVG Version: 6.00 Build 0)  -->
<svg version="1.1" id="Layer_1" xmlns="http://www.w3.org/2000/svg" xmlns:xlink="http://www.w3.org/1999/xlink" x="0px" y="0px"
	 viewBox="0 0 22.6 22.6" style="enable-background:new 0 0 22.6 22.6;" xml:space="preserve">
<g>
	<path d="M21.6,0.8C21,0.3,20.3,0,19.7,0c-1.1,0-1.8,0.7-2,0.9c0,0-0.2,0.2-0.4,0.4l4.1,3.9c0.2-0.2,0.3-0.3,0.3-0.3
		c0.7-0.7,1-1.4,1-2.1C22.6,2.1,22.2,1.5,21.6,0.8z M7,11.6c-0.1,0.1-0.1,0.2-0.1,0.2c-0.2,0.8-1.4,4.6-1.4,4.7
		c-0.1,0.2,0,0.4,0.1,0.5c0.1,0.1,0.2,0.2,0.4,0.2c0.1,0,0.1,0,0.2,0c0,0,3.9-1.3,4.6-1.5c0.1,0,0.2-0.1,0.2-0.1
		c0.3-0.3,7-7,9.7-9.6l-4.1-3.9C13.7,4.8,7,11.6,7,11.6z M10.7,18c-0.6,0.2-4.2,1.2-4.3,1.3c-0.3,0.1-0.5,0.1-0.8,0.1
		c-0.7,0-1.2-0.2-1.7-0.7c-0.7-0.7-0.9-1.6-0.6-2.5C4,13.7,4.5,12,4.6,11.6c0.1-0.4,0.3-0.8,0.6-1.1c0,0,7.9-7.9,7.9-7.9H1.3
		C0.5,2.6,0,3.2,0,4v17c0,0.8,0.5,1.6,1.3,1.6h16.1c0.8,0,1.5-0.7,1.5-1.5l0-10.8c-3,3-7,6.8-7.2,7.1C11.5,17.6,11.1,17.9,10.7,18z"
		/>
</g>
</svg>
