<?xml version="1.0" encoding="utf-8"?>
<!-- Generator: Adobe Illustrator 22.1.0, SVG Export Plug-In . SVG Version: 6.00 Build 0)  -->
<svg version="1.1" id="Layer_1" xmlns="http://www.w3.org/2000/svg" xmlns:xlink="http://www.w3.org/1999/xlink" x="0px" y="0px"
	 viewBox="0 0 22.9 23.1" style="enable-background:new 0 0 22.9 23.1;" xml:space="preserve">
<path d="M5.2,0C4.7,0,4.3,0.1,3.9,0.4c0,0-4,3-3.9,4.6C0.1,8,2.4,11.8,6.8,16.3C11.2,20.7,15,23,18,23.1h0h0c1.5,0,4.4-3.9,4.5-3.9
	c0.7-1,0.4-2.2-0.2-2.6c-0.3-0.2-4-2.7-4.4-2.9c-0.2-0.2-0.5-0.2-0.9-0.2c-0.4,0-0.8,0.1-1.2,0.3c-0.3,0.2-2.1,1.9-2.7,2.3
	c-0.5-0.4-1.5-1.2-3-2.7c-1.5-1.5-2.3-2.5-2.7-3c0.3-0.6,1.7-2.7,1.9-3c0.4-0.8,0.4-1.5,0.1-2.1C9.2,4.7,6.8,1,6.5,0.6
	C6.2,0.2,5.7,0,5.2,0L5.2,0z"/>
</svg>
