<?xml version="1.0" encoding="utf-8"?>
<!-- Generator: Adobe Illustrator 22.1.0, SVG Export Plug-In . SVG Version: 6.00 Build 0)  -->
<svg version="1.1" id="Layer_1" xmlns="http://www.w3.org/2000/svg" xmlns:xlink="http://www.w3.org/1999/xlink" x="0px" y="0px"
	 viewBox="0 0 13 16.5" style="enable-background:new 0 0 13 16.5;" xml:space="preserve">
<path d="M7.8,11.9c-1,0-2-0.6-2.4-1.2c0,0-0.6,2.2-0.7,2.6c-0.4,1.5-1.6,3-1.7,3.1c-0.1,0.1-0.2,0.1-0.2-0.1c0-0.2-0.3-2.1,0-3.6
	C3,12,4.1,7.6,4.1,7.6S3.7,7,3.7,6.1c0-1.4,0.8-2.4,1.9-2.4c0.9,0,1.3,0.6,1.3,1.4c0,0.9-0.6,2.2-0.8,3.4c-0.2,1,0.5,1.8,1.5,1.8
	c1.8,0,3.1-2.3,3.1-5c0-2.1-1.4-3.6-4-3.6c-2.9,0-4.7,2.1-4.7,4.5C1.9,7,2.1,7.5,2.5,8c0.2,0.2,0.2,0.3,0.1,0.5
	c0,0.2-0.2,0.6-0.2,0.8C2.4,9.5,2.2,9.6,2,9.5C0.6,9,0,7.5,0,5.9C0,3.2,2.3,0,6.9,0C10.6,0,13,2.6,13,5.4C13,9.1,10.9,11.9,7.8,11.9
	z"/>
</svg>
