<?xml version="1.0" encoding="utf-8"?>
<!-- Generator: Adobe Illustrator 22.1.0, SVG Export Plug-In . SVG Version: 6.00 Build 0)  -->
<svg version="1.1" id="Layer_1" xmlns="http://www.w3.org/2000/svg" xmlns:xlink="http://www.w3.org/1999/xlink" x="0px" y="0px"
	 viewBox="0 0 16 16.1" style="enable-background:new 0 0 16 16.1;" xml:space="preserve">
<g>
	<path d="M2.1,11.8c-1.2,0-2.1,1-2.1,2.1C0,15.1,1,16,2.1,16c1.2,0,2.1-1,2.1-2.1C4.3,12.7,3.3,11.8,2.1,11.8z M0,5.5v3.1
		c2,0,3.9,0.8,5.3,2.2C6.7,12.1,7.5,14,7.5,16h3.1C10.6,10.2,5.8,5.5,0,5.5z M0,0v3.1c7.1,0,12.9,5.8,12.9,13H16C16,7.2,8.8,0,0,0z"
		/>
</g>
</svg>
