<?xml version="1.0" encoding="utf-8"?>
<!-- Generator: Adobe Illustrator 22.1.0, SVG Export Plug-In . SVG Version: 6.00 Build 0)  -->
<svg version="1.1" id="Layer_1" xmlns="http://www.w3.org/2000/svg" xmlns:xlink="http://www.w3.org/1999/xlink" x="0px" y="0px"
	 viewBox="0 0 16 16" style="enable-background:new 0 0 16 16;" xml:space="preserve">
<style type="text/css">
	.st0{fill-rule:evenodd;clip-rule:evenodd;}
</style>
<path class="st0" d="M15.7,14.3l-3.9-3.9c0.8-1.1,1.3-2.4,1.3-3.9c0-3.6-2.9-6.5-6.5-6.5C2.9,0,0,2.9,0,6.5S2.9,13,6.5,13
	c1.4,0,2.7-0.5,3.8-1.2l4,3.9c0.4,0.4,1,0.4,1.4,0C16.1,15.3,16.1,14.7,15.7,14.3z M6.5,11C4,11,2,9,2,6.5C2,4,4,2,6.5,2
	c2.5,0,4.5,2,4.5,4.5C11.1,9,9,11,6.5,11z"/>
</svg>
