<?xml version="1.0" encoding="utf-8"?>
<!-- Generator: Adobe Illustrator 22.1.0, SVG Export Plug-In . SVG Version: 6.00 Build 0)  -->
<svg version="1.1" id="Layer_1" xmlns="http://www.w3.org/2000/svg" xmlns:xlink="http://www.w3.org/1999/xlink" x="0px" y="0px"
	 viewBox="0 0 16.1 16.1" style="enable-background:new 0 0 16.1 16.1;" xml:space="preserve">
<style type="text/css">
	.st0{fill-rule:evenodd;clip-rule:evenodd;}
</style>
<path class="st0" d="M15.1,16.1H1c-0.6,0-1-0.5-1-1v-0.6c0-0.9,1-1,1-1l5.4-2.7C4.9,9.6,4.1,7.3,4.1,6.2V3.6C4.1,1.9,6,0,8.2,0
	c2.3,0,3.8,1.9,3.8,3.6v2.6c0,1.2-0.8,3.4-2.2,4.6l5.2,2.6c0,0,1,0.2,1,1V15C16.1,15.6,15.6,16.1,15.1,16.1z"/>
</svg>
