<?xml version="1.0" encoding="utf-8"?>
<!-- Generator: Adobe Illustrator 22.1.0, SVG Export Plug-In . SVG Version: 6.00 Build 0)  -->
<svg version="1.1" id="Layer_1" xmlns="http://www.w3.org/2000/svg" xmlns:xlink="http://www.w3.org/1999/xlink" x="0px" y="0px"
	 viewBox="0 0 26 16.1" style="enable-background:new 0 0 26 16.1;" xml:space="preserve">
<style type="text/css">
	.st0{fill-rule:evenodd;clip-rule:evenodd;}
</style>
<g>
	<path class="st0" d="M8,8.8v-2C8,5.5,6.9,4,5.1,4C3.4,4,2,5.5,2,6.8v2c0,0.9,0.4,2.6,1.5,3.5L1,13.9c0,0-1,0.6-1,1.2v0.5
		C0,16,0.5,16,1,16h4v-1.6c0-1.2,0.9-1.9,1.4-2.2C7.4,11.4,8,9.7,8,8.8z M25,13.9l-2.5-1.6c1.1-0.9,1.5-2.6,1.5-3.5v-2
		C24,5.5,22.6,4,20.9,4C19.1,4,18,5.5,18,6.8v2c0,0.9,0.6,2.6,1.6,3.5c0.5,0.3,1.4,1,1.4,2.2V16h4c0.4,0,1,0,1-0.4v-0.5
		C26,14.5,25,13.9,25,13.9z M19.1,13.2l-4.5-2.4c1.4-1.1,2.2-3.3,2.2-4.6V3.6c0-1.7-1.6-3.6-3.8-3.6c-2.3,0-4.1,1.9-4.1,3.6v2.6
		c0,1.1,0.8,3.4,2.3,4.6l-4.1,2.3c0,0-1.1,0.5-1.1,1.4V15c0,0.6,0.5,1,1,1h12c0.6,0,1-0.5,1-1v-0.6C20.1,13.6,19.1,13.2,19.1,13.2z"
		/>
</g>
</svg>
